<?xml version="1.0" encoding="iso-8859-1"?>
<!-- Uploaded to: SVG Repo, www.svgrepo.com, Generator: SVG Repo Mixer Tools -->
<!DOCTYPE svg PUBLIC "-//W3C//DTD SVG 1.1//EN" "http://www.w3.org/Graphics/SVG/1.1/DTD/svg11.dtd">
<svg fill="#fff" version="1.1" id="Capa_1" xmlns="http://www.w3.org/2000/svg" xmlns:xlink="http://www.w3.org/1999/xlink" 
	 width="800px" height="800px" viewBox="0 0 52.883 52.883"
	 xml:space="preserve">
<g>
	<g>
		<g>
			<g>
				<path d="M47.646,16.457H5.236C2.349,16.457,0,14.108,0,11.221c0-2.887,2.35-5.236,5.236-5.236h42.411
					c2.887,0,5.236,2.349,5.236,5.236C52.883,14.108,50.533,16.457,47.646,16.457z M5.236,10.473c-0.413,0-0.748,0.336-0.748,0.748
					s0.335,0.748,0.748,0.748h42.411c0.412,0,0.748-0.336,0.748-0.748s-0.336-0.748-0.748-0.748H5.236z"/>
			</g>
		</g>
		<g>
			<g>
				<path d="M47.646,31.679H5.236C2.349,31.679,0,29.329,0,26.442c0-2.887,2.35-5.236,5.236-5.236h42.411
					c2.887,0,5.236,2.35,5.236,5.236C52.883,29.329,50.533,31.679,47.646,31.679z M5.236,25.694c-0.413,0-0.748,0.336-0.748,0.748
					s0.335,0.748,0.748,0.748h42.411c0.412,0,0.748-0.336,0.748-0.748s-0.336-0.748-0.748-0.748H5.236z"/>
			</g>
		</g>
		<g>
			<g>
				<path d="M47.646,46.897H5.236C2.349,46.897,0,44.55,0,41.662s2.35-5.237,5.236-5.237h42.411c2.887,0,5.236,2.35,5.236,5.237
					S50.533,46.897,47.646,46.897z M5.236,40.914c-0.413,0-0.748,0.336-0.748,0.748s0.335,0.748,0.748,0.748h42.411
					c0.412,0,0.748-0.336,0.748-0.748s-0.336-0.748-0.748-0.748H5.236z"/>
			</g>
		</g>
	</g>
</g>
</svg>